# xmcd
#
# Track frame offsets:
#	150
#	31891
#	49380
#	68469
#	88690
#	108060
#	127949
#	139754
#	162068
#	175557
#	184668
#	201792
#	215825
#	229531
#	257989
#	279132
#	303277
#	316337
#
# Disc length: 4499 seconds
#
# Revision: 1
# Processed by: cddbd v1.5.1PL0 Copyright (c) Steve Scherf et al.
# Submitted via: CDex 1.50Beta5
#
DISCID=eb119112
DTITLE=デレク・アンド・ドミノス - ドライヴィン-ミュージック・フォー・ホリデイ・ドライヴァーズ
DYEAR=2003
DGENRE=Rock
TTITLE0=デレク・アンド・ドミノス/いとしのレイラ
TTITLE1=スティーヴィー・ワンダー/愛するデューク
TTITLE2=スタイル・カウンシル/シャウト・トゥ・ザ・トップ
TTITLE3=イエス/ロンリー・ハート
TTITLE4=シェリル・クロウ/エヴリデイ・イズ・ア・ワインディング・ロード
TTITLE5=マット・ビアンコ/ホワット・ア・フール・ビリーヴス
TTITLE6=ダスティ・スプリングフィールド/スプーキー
TTITLE7=クリーム/ホワイト・ルーム
TTITLE8=ジャクソン・ファイヴ/ABC
TTITLE9=トム・ジョーンズ/よくあることさ
TTITLE10=10CC/アイム・ノット・イン・ラヴ
TTITLE11=エルヴィス・コステロ/SHE
TTITLE12=ジミー・クリフ/遥かなる河
TTITLE13=ティアーズ・フォー・フィアーズ/シーズ・オブ・ラヴ
TTITLE14=エルトン・ジョン/土曜の夜は僕の生きがい
TTITLE15=ユーリズミックス/ゼア・マスト・ビー・アン・エンジェル
TTITLE16=ロス・ロボス/ラ・バンバ
TTITLE17=アーロン・ネヴィル/アヴェ・マリア
EXTD=
EXTT0=
EXTT1=
EXTT2=
EXTT3=
EXTT4=
EXTT5=
EXTT6=
EXTT7=
EXTT8=
EXTT9=
EXTT10=
EXTT11=
EXTT12=
EXTT13=
EXTT14=
EXTT15=
EXTT16=
EXTT17=
PLAYORDER=
